<?xml version="1.0" encoding="UTF-8"?>
<svg version="1.1" xmlns="http://www.w3.org/2000/svg" width="2000" height="589">
<path d="M0 0 C6.8995188 6.23386844 11.66169482 14.2037551 12.8288058 23.52520673 C12.93318095 25.84020366 12.95054945 28.13831048 12.93109798 30.45557213 C12.9357579 31.33555036 12.94041782 32.21552859 12.94521895 33.12217283 C12.95714018 36.06169461 12.94778454 39.00075172 12.9384613 41.9402771 C12.94263547 44.07272962 12.94811344 46.20517992 12.95478112 48.3376261 C12.96924351 54.19071315 12.96498844 60.04365948 12.9576143 65.89675426 C12.95288693 72.21180737 12.96538868 78.52682985 12.97563171 84.84187317 C12.99183937 96.4961366 12.9942633 108.15034375 12.98932672 119.804615 C12.9847679 130.57253457 12.98537078 141.34043745 12.99116707 152.10835648 C12.99192394 153.55327203 12.99267992 154.99818759 12.99343501 156.44310314 C12.99458022 158.62051757 12.9957301 160.79793199 12.99689426 162.97534641 C13.0075979 183.21664038 13.01232591 203.4579288 13.0044241 223.69922447 C13.00397834 224.84352528 13.00397834 224.84352528 13.00352357 226.01094328 C13.00107469 232.20578607 12.99846307 238.40062879 12.99583944 244.5954715 C12.98573752 268.75801 12.99409191 292.920479 13.01733398 317.08300781 C13.04341162 344.23725124 13.05625316 371.39145284 13.04914623 398.54570925 C13.04843019 401.44160183 13.0477558 404.33749441 13.04710579 407.23338699 C13.04693598 407.94641564 13.04676617 408.65944428 13.04659122 409.39407985 C13.04428918 420.15288647 13.05226068 430.91165422 13.06539726 441.67045212 C13.0803123 453.90753115 13.0807724 466.14449093 13.06332635 478.38157319 C13.05480288 484.62493091 13.05269993 490.8681148 13.06797791 497.11146355 C13.08179444 502.82836725 13.07710053 508.54494769 13.05773867 514.26183255 C13.05396908 516.32836642 13.05692816 518.394926 13.06735032 520.46143703 C13.13591082 535.09810817 12.41615298 547.31047737 1.55078125 558.3046875 C-1.29388523 560.67348041 -4.15726792 562.61345372 -7.44921875 564.3046875 C-8.01772051 564.63223384 -8.58622227 564.95978019 -9.17195135 565.29725218 C-18.28213333 569.79647681 -28.26622265 568.85919524 -38.167099 568.81262207 C-40.29629126 568.81723342 -42.42548033 568.8235879 -44.55466276 568.83153105 C-50.39413152 568.84821532 -56.2333385 568.8399819 -62.07280815 568.82758617 C-68.37489645 568.81853436 -74.6769398 568.83250613 -80.97901917 568.84350586 C-92.60751702 568.86026671 -104.23590893 568.85881126 -115.86440942 568.84785999 C-126.60814286 568.83779183 -137.35184577 568.83517371 -148.09558296 568.83995056 C-148.80865413 568.8402561 -149.5217253 568.84056164 -150.25640469 568.84087644 C-153.15111273 568.84212183 -156.04582075 568.84339543 -158.94052875 568.8447155 C-186.08797593 568.85694787 -213.23537007 568.84586365 -240.38280906 568.82432791 C-264.49180672 568.80534793 -288.60071987 568.8070427 -312.7097168 568.82617188 C-339.80647232 568.8475999 -366.90318098 568.85607826 -393.99994379 568.84372282 C-396.88964211 568.84243999 -399.77934044 568.84118862 -402.66903877 568.83995056 C-403.38053776 568.83963425 -404.09203676 568.83931794 -404.82509632 568.83899205 C-415.56032527 568.83444587 -426.2955203 568.83975637 -437.03074455 568.84986877 C-449.24035622 568.86131279 -461.44984279 568.8580473 -473.65944784 568.8367458 C-479.8886323 568.82623612 -486.11764528 568.82211239 -492.34682846 568.83534241 C-498.0507453 568.84727355 -503.75433194 568.84069134 -509.45821888 568.8194322 C-511.5200099 568.81496924 -513.5818289 568.81722547 -515.64360189 568.82693535 C-531.06188757 568.89396934 -542.83140647 567.62687031 -554.35546875 556.45703125 C-562.98828965 547.25722423 -564.91564652 537.65567194 -564.7265625 525.359375 C-562.26599987 453.94185066 -540.19477505 381.29601026 -509.44921875 317.3046875 C-508.92489258 316.20688965 -508.40056641 315.1090918 -507.86035156 313.97802734 C-488.5811407 273.83103509 -464.27929809 236.32519117 -435.87304688 202.03271484 C-434.58857998 200.4738231 -433.32242938 198.89988311 -432.05859375 197.32421875 C-427.16092503 191.21975036 -421.98401792 185.44619717 -416.63671875 179.73828125 C-414.13396131 177.06535089 -411.69819944 174.33844564 -409.265625 171.6015625 C-404.60782354 166.41555172 -399.74971196 161.45270174 -394.81030273 156.53540039 C-393.38082158 155.11131258 -391.95681364 153.68190706 -390.53320312 152.25195312 C-385.87157276 147.59681076 -381.16600775 143.06545034 -376.16333008 138.77807617 C-373.82391793 136.76720133 -371.58018048 134.65831741 -369.32421875 132.5546875 C-364.11857238 127.80794108 -358.67627289 123.45622532 -353.10546875 119.1484375 C-350.04707033 116.78275325 -347.03912404 114.36092316 -344.03930664 111.92163086 C-317.54411187 90.43932553 -288.40799416 72.51632014 -258.44921875 56.3046875 C-257.33691895 55.69786133 -256.22461914 55.09103516 -255.07861328 54.46582031 C-246.51220498 49.81973825 -237.84476989 45.54239774 -228.94921875 41.5546875 C-228.29136383 41.25887787 -227.63350891 40.96306824 -226.95571899 40.65829468 C-177.52948468 18.50114769 -48.45836159 -37.42328915 0 0 Z " fill="#FE4035" transform="translate(583.44921875,14.6953125)"/>
<path d="M0 0 C5.2608004 0.01389908 10.4510105 0.16146306 15.69140625 0.6328125 C26.39186798 1.42136409 37.10848873 1.28070733 47.83203125 1.2578125 C48.93482422 1.25759094 50.03761719 1.25736938 51.17382812 1.25714111 C65.73821744 1.25370312 80.27553867 1.11098927 94.82055664 0.31298828 C95.86590576 0.26126465 96.91125488 0.20954102 97.98828125 0.15625 C98.87451172 0.10388184 99.76074219 0.05151367 100.67382812 -0.00244141 C102.76953125 0.1328125 102.76953125 0.1328125 104.76953125 2.1328125 C107.7821685 2.41172397 107.7821685 2.41172397 111.30859375 2.328125 C112.61054687 2.32167969 113.9125 2.31523437 115.25390625 2.30859375 C116.6341172 2.29188179 118.01432554 2.27495189 119.39453125 2.2578125 C120.78254577 2.24778256 122.17056714 2.23865673 123.55859375 2.23046875 C126.96241151 2.20683113 130.36588631 2.17388117 133.76953125 2.1328125 C139.7030167 14.55539893 145.15667289 27.16944341 150.58203125 39.8203125 C151.86878227 42.81726866 153.15621082 45.81392914 154.44499207 48.81001282 C155.23981305 50.65808874 156.03342064 52.50668714 156.82563782 54.35588074 C157.1832872 55.18807632 157.54093658 56.02027191 157.90942383 56.87768555 C158.22140213 57.6052153 158.53338043 58.33274506 158.85481262 59.08232117 C159.76893265 61.13147064 160.75080138 63.13389131 161.76953125 65.1328125 C162.42953125 65.1328125 163.08953125 65.1328125 163.76953125 65.1328125 C165.3210604 63.08376226 165.3210604 63.08376226 166.95703125 60.2578125 C167.29452393 59.69900391 167.6320166 59.14019531 167.97973633 58.56445312 C171.06692227 53.41005609 174.043966 48.19135929 177.03393555 42.98022461 C179.62763243 38.46553908 182.23737119 33.96023752 184.85009766 29.45654297 C186.10055014 27.29123387 187.34284326 25.12118572 188.57568359 22.94580078 C190.24040496 20.01370088 191.9379457 17.10318888 193.64453125 14.1953125 C194.13074951 13.32003906 194.61696777 12.44476563 195.11791992 11.54296875 C197.6668193 7.27671369 199.55470082 4.77927222 204.3359375 3.109375 C207.47155962 2.32316387 210.606168 1.70133339 213.83203125 1.4453125 C215.13140625 1.3421875 216.43078125 1.2390625 217.76953125 1.1328125 C218.6484375 3.125 218.6484375 3.125 218.76953125 6.1328125 C217.10046081 9.11393297 214.89448083 11.64386834 212.70703125 14.2578125 C211.40271518 15.87319976 210.10069899 17.49044626 208.80078125 19.109375 C207.79337891 20.35509277 207.79337891 20.35509277 206.765625 21.62597656 C203.64026798 25.55102131 200.66826027 29.58324709 197.70703125 33.6328125 C197.13106201 34.41897949 196.55509277 35.20514648 195.96166992 36.01513672 C194.22811346 38.38563373 192.49873792 40.75914135 190.76953125 43.1328125 C189.9199585 44.29393555 189.9199585 44.29393555 189.05322266 45.47851562 C187.37161867 47.77727069 185.69478776 50.07942861 184.01953125 52.3828125 C183.53734131 53.04216797 183.05515137 53.70152344 182.55834961 54.38085938 C181.55065321 55.77273687 180.5613327 57.17804005 179.58740234 58.59375 C178.1681401 60.57606633 176.71042471 62.42300006 175.15869141 64.296875 C166.80008275 74.86547602 166.65569251 83.54622444 167.64453125 96.6328125 C167.74327592 98.41249032 167.83704829 100.19245117 167.92578125 101.97265625 C168.10096712 105.41440317 168.29989006 108.85348558 168.51464844 112.29296875 C168.89962479 118.90783232 168.87184127 125.50918606 168.76953125 132.1328125 C155.37767169 137.81856325 155.37767169 137.81856325 149.76953125 138.1328125 C147.76953125 136.1328125 147.76953125 136.1328125 147.71743774 134.02926636 C147.85078018 132.71709641 147.85078018 132.71709641 147.98681641 131.37841797 C148.07618973 130.37610138 148.16556305 129.37378479 148.25764465 128.34109497 C148.35695786 127.23853363 148.45627106 126.13597229 148.55859375 125 C150.63926956 94.78933994 148.48926997 72.63593304 134.08203125 45.8828125 C133.75725044 45.27778648 133.43246964 44.67276047 133.09784698 44.04940033 C124.18843048 24.56541414 124.18843048 24.56541414 108.95703125 11.6953125 C107.98121094 11.38722656 107.00539063 11.07914062 106 10.76171875 C105.26394531 10.55417969 104.52789063 10.34664063 103.76953125 10.1328125 C103.43953125 11.1228125 103.10953125 12.1128125 102.76953125 13.1328125 C93.48559245 13.20306406 84.23355 12.99353893 74.95703125 12.6328125 C73.68021484 12.58511719 72.40339844 12.53742188 71.08789062 12.48828125 C67.98168284 12.37194388 64.87557553 12.25342312 61.76953125 12.1328125 C60.6058773 15.62377436 60.64245395 18.35280184 60.64013672 22.03735352 C60.6383844 22.73729935 60.63663208 23.43724518 60.63482666 24.15840149 C60.63041136 26.48453221 60.63335228 28.81058717 60.63671875 31.13671875 C60.63604389 32.7740836 60.63507235 34.41144835 60.63381958 36.04881287 C60.63234165 39.49975528 60.63449388 42.95067191 60.63916016 46.40161133 C60.6447556 50.74377702 60.64155698 55.08588003 60.63570881 59.42804337 C60.61582718 76.93568786 60.72166217 94.40005814 61.54907227 111.8918457 C61.87777031 118.97248335 61.86587367 126.04629231 61.76953125 133.1328125 C58.85727284 134.02566539 55.94136954 134.89739386 53.01953125 135.7578125 C52.19453125 136.01304687 51.36953125 136.26828125 50.51953125 136.53125 C49.7203125 136.76328125 48.92109375 136.9953125 48.09765625 137.234375 C47.36450195 137.45432129 46.63134766 137.67426758 45.87597656 137.90087891 C43.25133714 138.18986911 41.98843449 137.48783444 39.76953125 136.1328125 C39.80711548 135.10571167 39.80711548 135.10571167 39.84545898 134.05786133 C40.09209272 127.2589354 40.32720947 120.45967433 40.55183411 113.6599884 C40.66863244 110.12732625 40.78784703 106.59480449 40.91503906 103.0625 C41.99861749 72.75758338 41.87400194 42.45229012 41.76953125 12.1328125 C40.47740723 12.1735791 39.1852832 12.2143457 37.85400391 12.25634766 C33.0722093 12.40451943 28.29011537 12.53927447 23.5078125 12.66992188 C21.43576527 12.72841756 19.36381824 12.79057989 17.29199219 12.85644531 C14.31854494 12.95034365 11.34498977 13.0311651 8.37109375 13.109375 C7.44084381 13.14157135 6.51059387 13.1737677 5.55215454 13.2069397 C4.69141327 13.22711151 3.830672 13.24728333 2.94384766 13.26806641 C2.1843985 13.29027252 1.42494934 13.31247864 0.64248657 13.33535767 C-1.23046875 13.1328125 -1.23046875 13.1328125 -3.23046875 11.1328125 C-3.4609375 8.78515625 -3.4609375 8.78515625 -3.41796875 6.0703125 C-3.41152344 5.17183594 -3.40507813 4.27335937 -3.3984375 3.34765625 C-3.17119385 0.35121089 -3.00300609 0.17881297 0 0 Z " fill="#F83E33" transform="translate(1136.23046875,398.8671875)"/>
<path d="M0 0 C6.65278442 0.06733533 12.5475057 0.1602894 17.70703125 4.87792969 C20.83704081 8.60875484 23.24681453 12.70004566 25.49414062 17.01025391 C27.19042633 20.16542648 29.24597026 22.79186936 31.46875 25.60058594 C32.16613281 26.53644531 32.86351562 27.47230469 33.58203125 28.43652344 C36.7467018 32.65994117 39.97005173 36.83749856 43.1953125 41.01464844 C44.84372524 43.14960268 46.48263049 45.29083459 48.1171875 47.43652344 C53.83725269 54.93369626 59.72752856 62.2758455 65.6953125 69.57714844 C68.06606547 72.47895007 70.40063157 75.40647772 72.71875 78.35058594 C76.19692178 82.71316464 79.81988513 86.94332744 83.46875 91.16308594 C84.02433594 91.80640869 84.57992187 92.44973145 85.15234375 93.11254883 C85.68472656 93.72477295 86.21710938 94.33699707 86.765625 94.96777344 C87.23838867 95.51159668 87.71115234 96.05541992 88.19824219 96.61572266 C89.97661133 98.57170028 91.8378654 100.43097798 93.71875 102.28808594 C93.94027293 85.52725441 93.25013011 68.89338891 92.28125 52.16308594 C92.14460842 49.73473274 92.00853869 47.3063473 91.87304688 44.87792969 C91.674977 41.3310468 91.47642305 37.7841989 91.27529907 34.23748779 C90.70996393 24.25655262 90.20056536 14.27336823 89.71875 4.28808594 C93.72304416 2.90563038 97.30286629 1.95343328 101.53125 1.60058594 C102.48644531 1.51421875 103.44164062 1.42785156 104.42578125 1.33886719 C105.56080078 1.31373047 105.56080078 1.31373047 106.71875 1.28808594 C107.71875 2.28808594 107.71875 2.28808594 107.75634766 4.58422852 C107.71558105 5.60669678 107.67481445 6.62916504 107.6328125 7.68261719 C107.56803711 9.42502686 107.56803711 9.42502686 107.50195312 11.20263672 C107.44974609 12.48895996 107.39753906 13.7752832 107.34375 15.10058594 C107.26659435 17.18447515 107.19180363 19.268442 107.11700439 21.35241699 C107.03782814 23.55285979 106.95697683 25.75323695 106.87597656 27.95361328 C106.63311831 34.60604986 106.41302338 41.2590503 106.21875 47.91308594 C106.19863861 48.59952179 106.17852722 49.28595764 106.1578064 49.99319458 C105.33797139 78.748571 105.10281096 107.52422763 104.71875 136.28808594 C97.01416016 136.5 97.01416016 136.5 94.35546875 134.59277344 C93.71222656 133.79097656 93.06898438 132.98917969 92.40625 132.16308594 C91.65085937 131.24398437 90.89546875 130.32488281 90.1171875 129.37792969 C88.92996094 127.84845703 88.92996094 127.84845703 87.71875 126.28808594 C86.87854998 125.22613902 86.03738099 124.16495812 85.1953125 123.10449219 C83.3641343 120.78824042 81.54881267 118.46034032 79.73828125 116.12792969 C76.47650122 111.94968805 73.10165596 107.86843197 69.71875 103.78808594 C65.48207518 98.67351578 61.29824833 93.52893997 57.21875 88.28808594 C47.39314622 75.67989741 37.09409538 63.44560962 26.71875 51.28808594 C26.22101074 50.70397949 25.72327148 50.11987305 25.21044922 49.51806641 C23.65213719 47.69018739 22.09207392 45.86382034 20.53125 44.03808594 C20.06831543 43.49579346 19.60538086 42.95350098 19.12841797 42.39477539 C15.05273047 37.63837507 10.88999517 32.96072387 6.71875 28.28808594 C6.26354193 52.57051853 7.15687265 76.66486023 8.65161133 100.90380859 C8.7204805 102.03214615 8.78934967 103.1604837 8.86030579 104.32301331 C8.9900801 106.42916488 9.12346229 108.53509902 9.26139832 110.64073181 C9.69148429 117.53108787 9.7906754 124.38510244 9.71875 131.28808594 C-0.73185198 136.72239897 -0.73185198 136.72239897 -5.28125 137.28808594 C-6.28125 136.28808594 -6.28125 136.28808594 -6.4140625 133.82324219 C-6.4008294 127.94112882 -6.33681048 122.07268043 -6.05249023 116.1965332 C-5.08760382 96.11688981 -5.16335028 76.0515473 -5.21258545 55.95428467 C-5.22299719 51.24003561 -5.22742045 46.52578079 -5.23242188 41.81152344 C-5.24300056 32.63702725 -5.26051924 23.46256481 -5.28125 14.28808594 C-10.23125 12.63808594 -15.18125 10.98808594 -20.28125 9.28808594 C-20.61125 6.97808594 -20.94125 4.66808594 -21.28125 2.28808594 C-17.70266185 -1.29050222 -5.1177854 0.07220044 0 0 Z " fill="#F83D33" transform="translate(852.28125,398.7119140625)"/>
<path d="M0 0 C12.87 0 25.74 0 39 0 C40.03125 4.57875 41.0625 9.1575 42.125 13.875 C45.68495655 29.23609667 49.75859867 44.4392097 54 59.625 C54.28651428 60.65816345 54.57302856 61.6913269 54.8682251 62.75579834 C58.05792436 74.23138304 61.42913864 85.63738453 65.125 96.9609375 C65.43751709 97.93608307 65.75003418 98.91122864 66.07202148 99.91592407 C68.44199579 107.03782671 71.13005614 114.97924167 77 120 C80.46712111 121.15570704 83.5414956 121.32835293 87.1875 121.5625 C89.09595703 121.68818359 89.09595703 121.68818359 91.04296875 121.81640625 C92.01878906 121.87699219 92.99460937 121.93757812 94 122 C94 123.98 94 125.96 94 128 C69.03104553 136.1167625 69.03104553 136.1167625 62 135 C56.52840194 131.96932443 55.40289275 127.65235971 53.6875 122 C53.40189209 121.10240967 53.11628418 120.20481934 52.82202148 119.2800293 C42 84.79447495 42 84.79447495 42 80 C26.82 80 11.64 80 -4 80 C-4.66 81.98 -5.32 83.96 -6 86 C-7.14328424 88.57700862 -8.30948716 91.12694383 -9.51953125 93.671875 C-9.85997971 94.39433411 -10.20042816 95.11679321 -10.55119324 95.86114502 C-11.26993171 97.38474037 -11.99028369 98.90757549 -12.7121582 100.4296875 C-13.80184371 102.72752888 -14.88672073 105.02758861 -15.97070312 107.328125 C-17.3505343 110.25555052 -18.74398638 113.1758953 -20.14697266 116.09228516 C-21.28156552 118.45713362 -22.34924486 120.8177049 -23.38037109 123.23193359 C-26.18466868 129.60554572 -26.18466868 129.60554572 -30.375 131.6328125 C-32.169375 131.87644531 -32.169375 131.87644531 -34 132.125 C-35.794375 132.40730469 -35.794375 132.40730469 -37.625 132.6953125 C-40.44654756 132.95003554 -43.17068548 133.0750197 -46 133 C-45.40459733 128.78830952 -43.95366562 125.78996836 -41.82421875 122.125 C-41.16695801 120.98530762 -40.50969727 119.84561523 -39.83251953 118.67138672 C-39.11758251 117.44755055 -38.40257441 116.2237559 -37.6875 115 C-36.95614109 113.73626053 -36.22551618 112.47209601 -35.49560547 111.20751953 C-34.02653462 108.66410994 -32.55412085 106.12268852 -31.07861328 103.58300781 C-28.23896445 98.6927994 -25.42929612 93.78554913 -22.625 88.875 C-22.14047363 88.02719971 -21.65594727 87.17939941 -21.15673828 86.3059082 C-11.85580596 70.00790065 -2.85624454 53.54345483 6 37 C6.61504395 35.85192871 7.23008789 34.70385742 7.86376953 33.52099609 C9.71317746 30.06215288 11.54512828 26.59422047 13.375 23.125 C13.95290283 22.04275146 14.53080566 20.96050293 15.1262207 19.84545898 C15.64917725 18.84716064 16.17213379 17.8488623 16.7109375 16.8203125 C17.17806152 15.93617676 17.64518555 15.05204102 18.12646484 14.14111328 C18.41473145 13.4345459 18.70299805 12.72797852 19 12 C18.505 11.01 18.505 11.01 18 10 C15.15753548 9.38628607 12.36978981 8.87561815 9.5 8.4375 C1.11709012 7.11709012 1.11709012 7.11709012 0 6 C0 4.02 0 2.04 0 0 Z M24 21 C17.60896178 34.15305223 11.2411528 47.31233095 5.1875 60.625 C4.54868896 62.02709717 4.54868896 62.02709717 3.89697266 63.45751953 C1.93889529 67.09232593 1.93889529 67.09232593 1 71 C13.54 71 26.08 71 39 71 C38.24190899 64.50988088 38.24190899 64.50988088 36.81665039 58.34399414 C36.58293228 57.52697525 36.34921417 56.70995636 36.1084137 55.86817932 C35.85736374 55.01578171 35.60631378 54.16338409 35.34765625 53.28515625 C35.08746201 52.38880966 34.82726776 51.49246307 34.55918884 50.56895447 C34.01170588 48.68984207 33.46108558 46.81164116 32.9074707 44.93432617 C32.05871918 42.04965001 31.22514548 39.16086765 30.39257812 36.27148438 C29.85767708 34.44244306 29.32190114 32.61365733 28.78515625 30.78515625 C28.53613052 29.91858902 28.2871048 29.05202179 28.03053284 28.15919495 C27.41322098 26.0874517 26.71421431 24.04036563 26 22 C25.34 21.67 24.68 21.34 24 21 Z " fill="#F73D32" transform="translate(1661,402)"/>
<path d="M0 0 C1.00292587 -0.00637985 2.00585175 -0.0127597 3.03916931 -0.01933289 C4.13685135 -0.02044571 5.23453339 -0.02155853 6.36547852 -0.02270508 C8.06390648 -0.02769768 8.06390648 -0.02769768 9.79664612 -0.03279114 C12.21029249 -0.03787202 14.62394594 -0.04019911 17.03759766 -0.04003906 C20.66980302 -0.04219212 24.30168774 -0.06024088 27.93383789 -0.0793457 C38.19079002 -0.10507657 48.400692 -0.09725313 58.60766602 1.01245117 C59.30363388 1.08756424 59.99960175 1.16267731 60.71665955 1.24006653 C69.53204916 2.35610087 78.18186709 5.57207397 84.30688477 12.14526367 C90.91513875 22.20208736 91.85268856 32.74672456 89.69360352 44.47729492 C86.58205236 54.93594483 80.36942895 63.88803161 71.07250977 69.71948242 C58.11893166 76.39752763 43.01975033 76.56490155 28.76855469 77.81982422 C26.36585046 77.88352055 26.36585046 77.88352055 25.30688477 79.14526367 C25.24301949 80.71176879 25.24980119 82.28122506 25.28515625 83.84863281 C25.30525253 84.84959488 25.32534882 85.85055695 25.34605408 86.8818512 C25.37308914 87.97037888 25.40012421 89.05890656 25.42797852 90.18041992 C25.45158951 91.28880722 25.4752005 92.39719452 25.49952698 93.53916931 C25.57638412 97.09549068 25.66031315 100.65160623 25.74438477 104.20776367 C25.79758339 106.61205032 25.85032391 109.01634715 25.90258789 111.4206543 C26.03202893 117.32898605 26.16728357 123.23716373 26.30688477 129.14526367 C23.89421152 130.01250567 21.47784007 130.86423303 19.05688477 131.70776367 C18.03401367 132.07804687 18.03401367 132.07804687 16.99047852 132.45581055 C13.30432247 133.7262818 11.01905396 134.32412821 7.30688477 133.14526367 C7.32567688 132.05129524 7.32567688 132.05129524 7.34484863 130.93522644 C7.46487014 123.92407211 7.5826099 116.91288358 7.69803619 109.90165234 C7.75739392 106.30062472 7.81751319 102.69961383 7.87963867 99.09863281 C8.54795977 63.68143706 8.54795977 63.68143706 7.93188477 28.27026367 C7.90094727 27.14620117 7.87000977 26.02213867 7.83813477 24.86401367 C7.79946289 23.7837793 7.76079102 22.70354492 7.72094727 21.59057617 C7.68952637 20.65745605 7.65810547 19.72433594 7.62573242 18.76293945 C7.27598391 15.89157384 6.61204781 13.72500434 5.30688477 11.14526367 C1.51935769 8.82109933 -2.45970042 7.45560635 -6.69311523 6.14526367 C-5.71587065 0.7006153 -5.56244423 0.02395736 0 0 Z M26.30688477 9.14526367 C24.7489133 12.26120661 25.06536195 15.59516459 24.99047852 19.02026367 C24.95930687 20.2171582 24.95930687 20.2171582 24.92750549 21.43823242 C24.88416528 23.13967428 24.84313295 24.84117622 24.80419922 26.54272461 C24.7458923 29.07967054 24.68039928 31.61634331 24.61352539 34.15307617 C24.40072203 42.54542531 24.2567088 50.93773345 24.21704102 59.33276367 C24.21030869 60.10555664 24.20357635 60.87834961 24.19664001 61.67456055 C24.19425859 63.49849694 24.24504437 65.32237438 24.30688477 67.14526367 C25.95903768 68.79741658 27.84509255 68.35622003 30.11938477 68.39526367 C42.42657407 68.23605036 54.08830781 64.22908105 63.24438477 55.83276367 C69.13401988 49.39229937 71.38642222 41.7750771 71.30688477 33.14526367 C70.91297042 26.31395969 69.09072214 21.75739273 64.29516602 16.83276367 C56.07621086 9.85714751 46.19297281 8.82401492 35.80688477 9.02026367 C34.88907227 9.02928711 33.97125977 9.03831055 33.02563477 9.04760742 C30.78576921 9.07093935 28.54647294 9.10367132 26.30688477 9.14526367 Z " fill="#F83E33" transform="translate(1520.693115234375,401.854736328125)"/>
<path d="M0 0 C4.15360031 3.44105799 6.91620943 7.75774334 9.625 12.375 C8.13620413 15.909895 6.14070885 18.05822222 3.3125 20.625 C2.55324219 21.33140625 1.79398438 22.0378125 1.01171875 22.765625 C-1.7249599 24.61097951 -3.14352356 24.71816564 -6.375 24.375 C-6.68953125 23.56675781 -7.0040625 22.75851562 -7.328125 21.92578125 C-7.75609375 20.85714844 -8.1840625 19.78851563 -8.625 18.6875 C-9.04265625 17.63175781 -9.4603125 16.57601563 -9.890625 15.48828125 C-12.75383345 9.48307826 -15.87888897 6.54198312 -21.9453125 4.10546875 C-27.45618403 2.44866332 -32.2808605 2.61799672 -37.5625 4.9375 C-43.01024248 8.02564145 -46.46925449 12.06946596 -48.75 17.875 C-49.95989116 24.65039051 -49.70085976 30.3021844 -46.375 36.375 C-39.41670956 45.68125488 -29.07981349 50.75058863 -18.6875 55.4375 C-7.54029465 60.4774001 2.27388137 66.72303276 8.4375 77.5625 C11.39557329 87.05947213 11.26878818 96.08270973 7.625 105.375 C0.71818459 118.40420027 -10.74718973 126.56700146 -24.375 131.375 C-38.41286931 135.4374524 -51.0826348 135.75493938 -64.18359375 128.72265625 C-69.61070226 125.38512963 -72.70454266 121.02404436 -75.375 115.375 C-75.15302732 111.15751902 -72.28033477 108.63332077 -69.5625 105.625 C-68.68980469 104.64015625 -67.81710937 103.6553125 -66.91796875 102.640625 C-64.375 100.375 -64.375 100.375 -60.375 100.375 C-59.75625 101.76912109 -59.75625 101.76912109 -59.125 103.19140625 C-55.1283947 111.87162497 -51.33042115 118.5213607 -42.375 122.8125 C-34.20460185 124.34444965 -27.84492722 122.9832524 -20.375 119.375 C-19.35644339 118.39390754 -18.35127096 117.39817888 -17.375 116.375 C-16.715 116.375 -16.055 116.375 -15.375 116.375 C-15.08753906 115.79105469 -14.80007813 115.20710937 -14.50390625 114.60546875 C-13.81207318 113.23855982 -13.09593865 111.88322019 -12.33984375 110.55078125 C-8.7692402 104.07481967 -7.36971606 98.06141462 -9.375 90.8125 C-14.25249695 78.43612006 -26.04191163 73.5806499 -37.19140625 67.9296875 C-61.21380959 55.69749288 -61.21380959 55.69749288 -65.98046875 41.58203125 C-67.71883893 31.85748522 -67.28181319 21.07218855 -62.375 12.375 C-55.35633498 2.45259524 -46.67096181 -2.34843792 -35.078125 -5.1875 C-23.66687585 -7.03440738 -9.8174606 -6.66846381 0 0 Z " fill="#F83D32" transform="translate(1497.375,403.625)"/>
<path d="M0 0 C-0.33 3.96 -0.66 7.92 -1 12 C-2.76601562 11.9278125 -4.53203125 11.855625 -6.3515625 11.78125 C-21.24419739 11.19700048 -36.09637329 10.86312996 -51 11 C-52.65808821 13.9182146 -53.25978517 16.05449297 -53.31884766 19.40136719 C-53.33871735 20.2619574 -53.35858704 21.12254761 -53.37905884 22.00921631 C-53.39638565 23.38910736 -53.39638565 23.38910736 -53.4140625 24.796875 C-53.43342865 25.74564514 -53.4527948 26.69441528 -53.4727478 27.67193604 C-53.53245659 30.69786633 -53.57889433 33.72383484 -53.625 36.75 C-53.66318777 38.80340187 -53.70223997 40.85678786 -53.7421875 42.91015625 C-53.83815108 47.93997496 -53.92221446 52.96986865 -54 58 C-46.18280773 58.05751068 -38.38299112 58.02298877 -30.5703125 57.74609375 C-29.87532654 57.72157135 -29.18034058 57.69704895 -28.46429443 57.67178345 C-25.6171518 57.56906679 -22.77017935 57.46261177 -19.92333984 57.35180664 C-17.80579939 57.27047159 -15.68811081 57.19536162 -13.5703125 57.12109375 C-11.71043701 57.05039673 -11.71043701 57.05039673 -9.81298828 56.97827148 C-7 57 -7 57 -6 58 C-5.76470588 65.29411765 -5.76470588 65.29411765 -7 69 C-7.5593222 68.99777939 -8.11864441 68.99555878 -8.69491577 68.99327087 C-14.50200768 68.97119418 -20.30908772 68.95608339 -26.11621094 68.94506836 C-28.28516117 68.94003109 -30.454108 68.93320109 -32.62304688 68.92456055 C-35.73568563 68.91246849 -38.8482796 68.90676572 -41.9609375 68.90234375 C-42.934935 68.89718246 -43.9089325 68.89202118 -44.91244507 68.88670349 C-46.26361923 68.88659019 -46.26361923 68.88659019 -47.64208984 68.88647461 C-48.43706879 68.884254 -49.23204773 68.88203339 -50.05111694 68.87974548 C-52.08089567 68.87741475 -52.08089567 68.87741475 -54 70 C-54.05023786 74.44334532 -54.08610608 78.88653085 -54.10986328 83.33007812 C-54.1197893 84.83499031 -54.13333455 86.33988391 -54.15087891 87.84472656 C-55.18951354 104.85026714 -55.18951354 104.85026714 -49.60595703 119.82666016 C-45.5558428 123.20441141 -42.50135848 123.12800248 -37.3828125 123.1328125 C-36.72981171 123.13376923 -36.07681091 123.13472595 -35.40402222 123.13571167 C-34.01706852 123.13639221 -32.63011164 123.13454671 -31.24316406 123.13037109 C-29.16724018 123.12510711 -27.09154137 123.13027488 -25.015625 123.13671875 C-17.57341495 123.14011557 -10.20981908 122.8649769 -2.79101562 122.22265625 C0.59626676 121.95243218 3.91543305 121.90016959 7.3125 121.9375 C8.40175781 121.94652344 9.49101563 121.95554687 10.61328125 121.96484375 C11.40089844 121.97644531 12.18851563 121.98804688 13 122 C12.52194021 126.09765533 12.02796474 130.00520466 11 134 C1.0123038 134.06945342 -8.97533512 134.12278753 -18.96322346 134.15543652 C-23.6008131 134.17110494 -28.23823775 134.19236458 -32.87573242 134.22631836 C-37.34962273 134.25887 -41.82335417 134.27684415 -46.29735374 134.28463173 C-48.00583587 134.2901828 -49.71430912 134.3010225 -51.42272377 134.31719017 C-53.81236312 134.33890904 -56.20134258 134.34196931 -58.59106445 134.34057617 C-59.30028549 134.351362 -60.00950653 134.36214783 -60.74021912 134.3732605 C-65.54894944 134.34284524 -65.54894944 134.34284524 -67.63196564 132.75953674 C-72.15322865 126.94438428 -71.28160716 117.21783054 -71.23950195 110.21362305 C-71.24151611 109.18631577 -71.24353027 108.15900848 -71.24560547 107.10057068 C-71.24912871 104.88863582 -71.24841161 102.67669084 -71.24382973 100.46475792 C-71.23820353 96.9633519 -71.24744701 93.46227301 -71.2610321 89.96089172 C-71.29803898 80.01256716 -71.31665832 70.06435841 -71.30541992 60.1159668 C-71.29957518 54.01588864 -71.31778899 47.91627677 -71.35130882 41.81629372 C-71.35926569 39.49546423 -71.35798205 37.17458396 -71.34728432 34.85376549 C-71.33298639 31.61512599 -71.34919528 28.37796189 -71.37231445 25.1394043 C-71.36054672 24.18191284 -71.34877899 23.22442139 -71.33665466 22.23791504 C-71.4007861 17.66324923 -71.49387217 15.65339722 -74.37199402 11.93782043 C-77.05572282 9.9589115 -79.09662297 9.00218885 -82.3125 8.1875 C-83.19550781 7.95417969 -84.07851562 7.72085937 -84.98828125 7.48046875 C-85.65214844 7.32191406 -86.31601563 7.16335938 -87 7 C-87.042721 5.33388095 -87.04063832 3.66617115 -87 2 C-84.88186536 -0.11813464 -80.17875878 0.73967766 -77.24609375 0.68359375 C-76.33377487 0.66276733 -75.42145599 0.64194092 -74.48149109 0.6204834 C-71.46691765 0.55388577 -68.45225438 0.4952858 -65.4375 0.4375 C-63.90425079 0.40573166 -63.90425079 0.40573166 -62.34002686 0.37332153 C-41.55934421 -0.05565893 -20.78409691 -0.11211339 0 0 Z " fill="#F73E33" transform="translate(1964,401)"/>
<path d="M0 0 C4.28892415 3.67506683 8.38258317 7.71866687 11.1328125 12.69140625 C11.04786021 15.71570773 9.34143549 17.01698279 7.25195312 19.0390625 C6.71892578 19.53019531 6.18589844 20.02132813 5.63671875 20.52734375 C5.10755859 21.03394531 4.57839844 21.54054688 4.03320312 22.0625 C2.72444774 23.31230244 1.40069916 24.54636993 0.07421875 25.77734375 C-2.95535196 24.86645953 -4.55218687 24.37487629 -6.26171875 21.640625 C-6.60460938 20.79886719 -6.9475 19.95710938 -7.30078125 19.08984375 C-10.64530624 11.86942065 -15.38649527 6.8201496 -22.7109375 3.55859375 C-33.78117058 -0.34625037 -45.82464986 -0.31756803 -56.58203125 4.5546875 C-64.07259762 8.46226629 -69.48827218 12.50922305 -73.92578125 19.77734375 C-74.69728516 21.03804688 -74.69728516 21.03804688 -75.484375 22.32421875 C-84.43009901 38.47560076 -86.63757076 58.56473833 -82.42578125 76.46484375 C-77.33922511 92.93390315 -69.65981515 105.70492865 -54.4453125 114.62109375 C-44.09939721 119.36898666 -30.39453352 119.58813384 -19.55078125 116.21484375 C-13.99508439 114.05516441 -8.8516818 111.10952729 -3.73828125 108.0703125 C-0.92578125 106.77734375 -0.92578125 106.77734375 1.32421875 106.765625 C3.85681609 108.22978284 4.23749327 110.05798595 5.07421875 112.77734375 C-16.49297525 127.22893798 -35.78239855 133.51577013 -61.73046875 128.6953125 C-74.58651546 126.06320909 -84.57071675 118.35486998 -92.00390625 107.75 C-104.15005511 88.96296894 -105.74413073 64.86774994 -101.84228516 43.25683594 C-99.37862236 31.78987943 -94.67745217 19.88223991 -85.92578125 11.77734375 C-85.25417969 11.14699219 -84.58257813 10.51664062 -83.890625 9.8671875 C-62.57301533 -8.60332906 -24.3316163 -17.67527764 0 0 Z " fill="#F83D32" transform="translate(1864.92578125,407.22265625)"/>
<path d="M0 0 C0.02687279 1.81242052 0.04633715 3.62495233 0.0625 5.4375 C0.07410156 6.44683594 0.08570313 7.45617187 0.09765625 8.49609375 C0 11 0 11 -1 12 C-2.80505961 12.01691412 -4.61084231 11.9621121 -6.4140625 11.87890625 C-7.5577832 11.83048584 -8.70150391 11.78206543 -9.87988281 11.73217773 C-11.73371582 11.64818726 -11.73371582 11.64818726 -13.625 11.5625 C-26.42556768 11.0358735 -39.19057186 10.88518768 -52 11 C-52.75677085 17.03583668 -53.13878273 22.89384104 -53.09765625 28.97265625 C-53.09553383 30.18543495 -53.09553383 30.18543495 -53.09336853 31.42271423 C-53.08783414 33.96934942 -53.0752946 36.51589203 -53.0625 39.0625 C-53.0574765 40.80403518 -53.05291509 42.54557175 -53.04882812 44.28710938 C-53.03788634 48.52477448 -53.02066826 52.76237163 -53 57 C-47.44917372 57.97151092 -42.22360054 58.04673172 -36.6015625 57.84375 C-35.72599701 57.81776733 -34.85043152 57.79178467 -33.94833374 57.76501465 C-31.17367825 57.68236758 -28.39935963 57.59201297 -25.625 57.5 C-22.82921409 57.40832702 -20.03343973 57.31845401 -17.23739624 57.23498535 C-15.50223755 57.18315419 -13.76721359 57.12655766 -12.03237915 57.06481934 C-10.02237271 57.00457299 -8.01090657 56.99679324 -6 57 C-5.67 57.33 -5.34 57.66 -5 58 C-5.08984301 59.85772162 -5.24611861 61.71247985 -5.4375 63.5625 C-5.53933594 64.57441406 -5.64117188 65.58632813 -5.74609375 66.62890625 C-5.87177734 67.80259766 -5.87177734 67.80259766 -6 69 C-6.86110634 68.99666908 -6.86110634 68.99666908 -7.73960876 68.99327087 C-13.6925291 68.97121743 -19.6454379 68.95609316 -25.59838867 68.94506836 C-27.82267732 68.94002683 -30.04696263 68.93319377 -32.27124023 68.92456055 C-35.46078309 68.91248702 -38.65028229 68.90677004 -41.83984375 68.90234375 C-42.84087631 68.89718246 -43.84190887 68.89202118 -44.87327576 68.88670349 C-46.25459435 68.88659019 -46.25459435 68.88659019 -47.66381836 68.88647461 C-48.47878281 68.884254 -49.29374725 68.88203339 -50.13340759 68.87974548 C-52.01477856 68.79471755 -52.01477856 68.79471755 -53 70 C-53.11365638 72.62211964 -53.16419162 75.21682183 -53.16796875 77.83984375 C-53.17129715 78.63596573 -53.17462555 79.43208771 -53.17805481 80.25233459 C-53.18313208 81.94629335 -53.18546289 83.64026216 -53.18530273 85.33422852 C-53.18746457 87.89552037 -53.20554204 90.45636401 -53.22460938 93.01757812 C-53.85847079 107.35482878 -53.85847079 107.35482878 -48.5625 120.0625 C-44.48085262 123.14862363 -41.36943927 123.12812645 -36.3828125 123.1328125 C-35.72981171 123.13376923 -35.07681091 123.13472595 -34.40402222 123.13571167 C-33.01706852 123.13639221 -31.63011164 123.13454671 -30.24316406 123.13037109 C-28.16724018 123.12510711 -26.09154137 123.13027488 -24.015625 123.13671875 C-16.57341495 123.14011557 -9.20981908 122.8649769 -1.79101562 122.22265625 C1.59626676 121.95243218 4.91543305 121.90016959 8.3125 121.9375 C9.40175781 121.94652344 10.49101563 121.95554687 11.61328125 121.96484375 C12.40089844 121.97644531 13.18851563 121.98804688 14 122 C13.69230293 123.81332154 13.37870936 125.62564345 13.0625 127.4375 C12.88847656 128.44683594 12.71445312 129.45617187 12.53515625 130.49609375 C12 133 12 133 11 134 C8.6486933 134.1214891 6.3261969 134.17856862 3.97338867 134.19287109 C2.87090034 134.20513733 2.87090034 134.20513733 1.74613953 134.21765137 C-0.69657566 134.24255042 -3.13923254 134.25903325 -5.58203125 134.2734375 C-6.83087884 134.28142302 -6.83087884 134.28142302 -8.10495567 134.28956985 C-12.51209977 134.31632178 -16.91921534 134.33568959 -21.32641602 134.35009766 C-25.8832023 134.36674568 -30.43926532 134.41151819 -34.99577808 134.4624691 C-38.49505968 134.49609851 -41.99416881 134.50767036 -45.49359703 134.51332474 C-47.17337251 134.52004984 -48.85313615 134.53530463 -50.5327549 134.55921555 C-52.88417327 134.59077836 -55.23363117 134.59091829 -57.58520508 134.58349609 C-58.27990906 134.59990143 -58.97461304 134.61630676 -59.69036865 134.63320923 C-63.30800201 134.58644645 -64.74392175 134.24387056 -67.40092468 131.71353149 C-69.65152573 127.89440131 -70.12346109 124.79990768 -70.14476013 120.40783691 C-70.15165863 119.4909761 -70.15855713 118.5741153 -70.16566467 117.62947083 C-70.16827805 116.63090561 -70.17089142 115.63234039 -70.17358398 114.60351562 C-70.180271 113.5462175 -70.18695801 112.48891937 -70.19384766 111.39958191 C-70.20789399 109.10406138 -70.21978937 106.80852692 -70.22979546 104.51298523 C-70.24620251 100.88218098 -70.26943905 97.25148038 -70.29469299 93.62072754 C-70.36548703 83.29782263 -70.42566675 72.97487614 -70.47680664 62.65185547 C-70.50856208 56.33836229 -70.54982524 50.0249895 -70.59700203 43.71159363 C-70.61303837 41.30342265 -70.62535236 38.89522394 -70.63390923 36.48701477 C-70.64603591 33.12337989 -70.67017374 29.7600293 -70.69702148 26.39648438 C-70.6979052 24.89863655 -70.6979052 24.89863655 -70.69880676 23.37052917 C-70.70852509 22.45366837 -70.71824341 21.53680756 -70.72825623 20.59216309 C-70.73248816 19.79724205 -70.7367201 19.00232101 -70.74108028 18.18331146 C-71.03827421 15.677257 -71.6199725 14.11115884 -73 12 C-77.1937042 9.9031479 -81.53529227 8.41563904 -86 7 C-86.042721 5.33388095 -86.04063832 3.66617115 -86 2 C-83.87794222 -0.12205778 -79.15007454 0.73959788 -76.2109375 0.68359375 C-74.83835785 0.65235413 -74.83835785 0.65235413 -73.43804932 0.6204834 C-70.41712261 0.55391384 -67.39610624 0.4953076 -64.375 0.4375 C-63.35122253 0.41632111 -62.32744507 0.39514221 -61.27264404 0.37332153 C-40.84760968 -0.04792212 -20.42839872 -0.11374387 0 0 Z " fill="#F83D33" transform="translate(817,401)"/>
<path d="M0 0 C6.00956852 -0.09905882 11.94129894 -0.04694968 17.9296875 0.49609375 C28.60666046 1.28810183 39.29962123 1.14967772 50 1.125 C51.10051697 1.12411377 52.20103394 1.12322754 53.3348999 1.12231445 C70.90970472 1.10569374 88.44246396 0.79936749 106 0 C106 4.29 106 8.58 106 13 C96.35659394 13.0496443 86.76150652 12.87730237 77.125 12.5 C75.85269531 12.45230469 74.58039063 12.40460938 73.26953125 12.35546875 C70.17959133 12.23930559 67.08976194 12.1207892 64 12 C62.91544082 15.52056159 62.87313874 18.77940567 62.87060547 22.45141602 C62.86587723 24.42242027 62.86587723 24.42242027 62.86105347 26.4332428 C62.86284769 27.87346428 62.86489972 29.31368546 62.8671875 30.75390625 C62.86651219 32.25292476 62.86554028 33.75194316 62.86428833 35.2509613 C62.86281162 38.40926139 62.86495812 41.56753327 62.86962891 44.72583008 C62.87521479 48.68791705 62.87203042 52.64993518 62.86617756 56.61201954 C62.84515341 73.5067342 63.02469941 90.3524498 63.77954102 107.23339844 C64.14797494 115.8194891 64.0881701 124.40831382 64 133 C61.08774159 133.89285289 58.17183829 134.76458136 55.25 135.625 C54.425 135.88023437 53.6 136.13546875 52.75 136.3984375 C51.95078125 136.63046875 51.1515625 136.8625 50.328125 137.1015625 C49.5949707 137.32150879 48.86181641 137.54145508 48.10644531 137.76806641 C45.47179008 138.05815941 44.28741414 137.24204548 42 136 C42.09087891 134.14942993 42.09087891 134.14942993 42.18359375 132.26147461 C43.59259148 102.88839137 44.18808619 73.58960972 44.125 44.1875 C44.12328796 43.38386395 44.12157593 42.58022789 44.11981201 41.75223923 C44.09710732 31.83473132 44.05706816 21.91737175 44 12 C42.05395874 12.05329468 42.05395874 12.05329468 40.06860352 12.10766602 C35.27364566 12.23764142 30.47853568 12.36093938 25.68334961 12.48217773 C23.60452552 12.53568107 21.52574778 12.59101658 19.44702148 12.64819336 C16.46608477 12.72987259 13.48504569 12.80504838 10.50390625 12.87890625 C9.56849503 12.90594131 8.6330838 12.93297638 7.66932678 12.96083069 C6.80850998 12.98092697 5.94769318 13.00102325 5.06079102 13.02172852 C4.29912125 13.04171402 3.53745148 13.06169952 2.75270081 13.08229065 C1 13 1 13 0 12 C-0.07244053 9.98035801 -0.08377188 7.95832876 -0.0625 5.9375 C-0.05347656 4.83277344 -0.04445313 3.72804688 -0.03515625 2.58984375 C-0.02355469 1.73519531 -0.01195312 0.88054687 0 0 Z " fill="#F93E33" transform="translate(973,399)"/>
<path d="M0 0 C7.24486551 -0.02526739 14.48971974 -0.0428318 21.73461914 -0.05493164 C24.20142033 -0.05997356 26.66821852 -0.06680691 29.13500977 -0.07543945 C32.67204529 -0.08751125 36.20904145 -0.09322956 39.74609375 -0.09765625 C40.85649521 -0.10281754 41.96689667 -0.10797882 43.11094666 -0.11329651 C44.64242088 -0.11340981 44.64242088 -0.11340981 46.20483398 -0.11352539 C47.10862289 -0.115746 48.0124118 -0.11796661 48.94358826 -0.12025452 C51 0 51 0 52 1 C52.04063832 2.66617115 52.042721 4.33388095 52 6 C50.41058594 6.36351562 50.41058594 6.36351562 48.7890625 6.734375 C47.40083127 7.07205287 46.01282152 7.41064218 44.625 7.75 C43.92632813 7.90726562 43.22765625 8.06453125 42.5078125 8.2265625 C38.56141408 9.09842494 38.56141408 9.09842494 35.7985878 11.81470776 C34.95789355 14.11522203 34.74857259 15.78943624 34.74603271 18.2303009 C34.73757324 19.48549782 34.73757324 19.48549782 34.72894287 20.76605225 C34.73299133 21.67574768 34.73703979 22.58544312 34.74121094 23.52270508 C34.7377063 24.48740219 34.73420166 25.4520993 34.73059082 26.44602966 C34.7217839 29.63726993 34.72762046 32.82828869 34.734375 36.01953125 C34.73302772 38.23907005 34.73108667 40.45860857 34.72857666 42.67814636 C34.72562653 47.33274136 34.72991831 51.98725962 34.73925781 56.6418457 C34.75063231 62.60035494 34.74410481 68.55868361 34.73211288 74.51718616 C34.72487434 79.10260876 34.72719174 83.6879888 34.73236847 88.2734127 C34.73370048 90.46979481 34.73207299 92.66618081 34.72740936 94.86255836 C34.72231364 97.93817953 34.73009818 101.01351161 34.74121094 104.08911133 C34.73716248 104.99273407 34.73311401 105.89635681 34.72894287 106.82736206 C34.76297648 111.92824017 35.22518694 116.1973037 37 121 C41.23236124 124.82277789 47.57863209 125.66127342 53 127 C53 128.98 53 130.96 53 133 C35.51 133 18.02 133 0 133 C0 131.02 0 129.04 0 127 C0.90363281 126.74605469 1.80726562 126.49210938 2.73828125 126.23046875 C3.91777344 125.88628906 5.09726563 125.54210937 6.3125 125.1875 C7.48425781 124.85105469 8.65601563 124.51460937 9.86328125 124.16796875 C12.91144065 123.0329754 14.03137726 122.46391509 16 120 C16.57266207 118.0329714 16.57266207 118.0329714 16.67941284 115.86933899 C16.74370358 115.07026438 16.80799431 114.27118977 16.87423325 113.44790077 C17.06891252 109.65869942 17.13934684 105.88448606 17.12939453 102.09057617 C17.13114685 101.25022324 17.13289917 100.4098703 17.13470459 99.54405212 C17.13906948 96.79366935 17.13620332 94.04335206 17.1328125 91.29296875 C17.13348727 89.36159757 17.13445874 87.43022648 17.13571167 85.49885559 C17.13718155 81.46008492 17.13505765 77.42133644 17.13037109 73.38256836 C17.12468578 68.23522509 17.12794976 63.08793411 17.13394356 57.94059277 C17.1375782 53.95375687 17.13639711 49.96693311 17.13381577 45.98009682 C17.13315391 44.08370266 17.13394866 42.18730736 17.13629532 40.29091454 C17.14577082 30.47945973 17.08995799 20.76603915 16 11 C10.69695602 9.2031179 5.39720281 7.49284333 0 6 C0 4.02 0 2.04 0 0 Z " fill="#F93E33" transform="translate(1080,402)"/>
<path d="M0 0 C0.66 0.33 1.32 0.66 2 1 C-2.29 5.29 -6.58 9.58 -11 14 C-11 10.30159372 -10.17133056 9.68584567 -7.75 7 C-7.14671875 6.319375 -6.5434375 5.63875 -5.921875 4.9375 C-4.06233388 3.06284066 -2.15205789 1.52358081 0 0 Z " fill="#E1352B" transform="translate(1447,404)"/>
</svg>
